<svg xmlns="http://www.w3.org/2000/svg" viewBox="0 0 500 500"><g id="freepik--background-complete--inject-22"><path d="M87.59,258.56l-13.12.27-6.66.12c-2.23,0-4.47,0-6.7.05h-.44v-.44l-.06-11.19v-.51h.5l13.24.06c4.42,0,8.83.11,13.24.16h.28v.27c0,1.89-.09,3.78-.13,5.65Zm0,0-.14-5.66c0-1.86-.11-3.7-.13-5.53l.27.27c-4.41.05-8.82.16-13.24.16l-13.24.07.5-.5,0,11.19-.45-.45c2.18,0,4.36,0,6.55.05l6.58.12Z" style="fill:#ebebeb"></path><path d="M72.82,272.67l-13.12.27-6.66.12c-2.23,0-4.47,0-6.7.05H45.9v-.44l-.06-11.19V261h.5l13.24.06c4.41,0,8.83.11,13.24.16h.28v.27c0,1.89-.08,3.78-.13,5.65Zm0,0L72.68,267c-.05-1.86-.11-3.7-.13-5.53l.27.27c-4.41.05-8.83.16-13.24.16L46.34,262l.5-.49-.05,11.19-.45-.45c2.18,0,4.36,0,6.55,0l6.58.12Z" style="fill:#ebebeb"></path><path d="M227.06,207.46l-13.12.28-6.66.11c-2.23.05-4.46,0-6.7.06h-.44v-.45l-.06-11.19v-.5h.5l13.24.06c4.42,0,8.83.12,13.24.17h.28v.27c0,1.9-.09,3.79-.13,5.65Zm0,0-.14-5.65c0-1.87-.11-3.71-.13-5.54l.27.27c-4.41.06-8.82.16-13.24.17l-13.24.06.5-.5L201,207.46l-.45-.44c2.19,0,4.36,0,6.55,0l6.58.11Z" style="fill:#ebebeb"></path><path d="M212.29,221.57l-13.12.28-6.66.11c-2.23,0-4.47,0-6.7.06h-.44v-.45l-.06-11.19v-.5h.5l13.24.06c4.42,0,8.83.12,13.24.17h.28v.27c0,1.9-.09,3.79-.14,5.65Zm0,0-.14-5.65c0-1.87-.11-3.71-.13-5.54l.27.27c-4.41,0-8.82.16-13.24.17l-13.24.06.5-.5-.05,11.19-.45-.45c2.18,0,4.36,0,6.55.06l6.58.11Z" style="fill:#ebebeb"></path><path d="M242.06,221.57l-13.12.28-6.66.11c-2.23,0-4.47,0-6.7.06h-.44v-.45l0-11.19v-.5h.5l13.24.06c4.41,0,8.83.12,13.24.17h.28v.27c0,1.9-.08,3.79-.13,5.65Zm0,0-.14-5.65c0-1.87-.11-3.71-.13-5.54l.27.27c-4.41,0-8.83.16-13.24.17l-13.24.06.5-.5L216,221.57l-.45-.45c2.18,0,4.36,0,6.55.06l6.58.11Z" style="fill:#ebebeb"></path><path d="M453.66,272.67l-13.13.27-6.66.12c-2.22,0-4.46,0-6.69.05h-.45v-.44l-.05-11.19V261h.5l13.24.06c4.41,0,8.83.11,13.24.16h.27v.27c0,1.89-.08,3.78-.13,5.65Zm0,0-.14-5.66c0-1.86-.12-3.7-.13-5.53l.27.27c-4.41.05-8.83.16-13.24.16l-13.24.06.5-.49-.06,11.19-.44-.45c2.18,0,4.36,0,6.54,0l6.58.12Z" style="fill:#ebebeb"></path><path d="M438.89,54.2l-13.13.28-6.66.11c-2.22,0-4.46,0-6.69.06H412V54.2l0-11.19v-.5h.51l13.24.06c4.41,0,8.82.12,13.24.17h.27V43c0,1.9-.09,3.79-.13,5.65Zm0,0-.14-5.65c-.05-1.87-.12-3.71-.14-5.54l.28.27c-4.42,0-8.83.16-13.24.17l-13.24.06.5-.5-.06,11.19-.44-.45c2.18,0,4.35,0,6.54.06l6.58.11Z" style="fill:#ebebeb"></path><path d="M453.66,68.31l-13.13.28-6.66.11c-2.22,0-4.46,0-6.69.06h-.45v-.45l-.05-11.19v-.5h.5l13.24.06c4.41,0,8.83.12,13.24.17h.27v.27c0,1.9-.08,3.79-.13,5.65Zm0,0-.14-5.65c0-1.87-.12-3.71-.13-5.54l.27.27c-4.41,0-8.83.16-13.24.17l-13.24.06.5-.5-.06,11.19-.44-.45c2.18,0,4.36,0,6.54.06l6.58.11Z" style="fill:#ebebeb"></path><path d="M87.59,54.2l-13.12.28-6.66.11c-2.23,0-4.47,0-6.7.06h-.44V54.2L60.61,43v-.5h.5l13.24.06c4.42,0,8.83.12,13.24.17h.28V43c0,1.9-.09,3.79-.13,5.65Zm0,0-.14-5.65c0-1.87-.11-3.71-.13-5.54l.27.27c-4.41,0-8.82.16-13.24.17l-13.24.06.5-.5,0,11.19-.45-.45c2.18,0,4.36,0,6.55.06l6.58.11Z" style="fill:#ebebeb"></path><rect x="78.21" width="1" height="94.49" style="fill:#c7c7c7"></rect><polygon points="120.11 134.4 116.78 141.72 40.63 141.72 37.31 134.4 69.73 111.96 87.69 111.96 120.11 134.4" style="fill:#ebebeb"></polygon><polygon points="89.94 90.34 87.69 111.96 69.73 111.96 67.48 90.34 89.94 90.34" style="fill:#dbdbdb"></polygon><polygon points="120.1 134.4 116.77 141.72 40.62 141.72 37.3 134.4 120.1 134.4" style="fill:#dbdbdb"></polygon><rect x="167.1" width="1" height="70.88" style="fill:#c7c7c7"></rect><polygon points="209 110.78 205.67 118.1 129.52 118.1 126.2 110.78 158.62 88.34 176.58 88.34 209 110.78" style="fill:#ebebeb"></polygon><polygon points="178.83 66.72 176.58 88.34 158.62 88.34 156.37 66.72 178.83 66.72" style="fill:#dbdbdb"></polygon><polygon points="209 110.79 205.67 118.11 129.52 118.11 126.2 110.79 209 110.79" style="fill:#dbdbdb"></polygon></g><g id="freepik--Floor--inject-22"><polygon points="41.45 384.13 93.59 383.88 145.73 383.8 250 383.63 354.27 383.79 406.41 383.88 458.55 384.13 406.41 384.37 354.27 384.46 250 384.63 145.73 384.46 93.59 384.37 41.45 384.13" style="fill:#263238"></polygon></g><g id="freepik--note-1--inject-22"><path d="M427.18,54.08V340.89H210.12V54.08h3.67l1.38,6L221.1,64v4.52h7v-7h-5.4l.53-7.38h15.52l.46,7.38h-1v7h7v-7h-3l.93-7.38h10.53l1.63,7.38v7h7v-7h-2.65l1.54-7.38H273l.62,7.38h-1.25v7h7v-7h-2.92V54.08h11.35l.3,2.2,1.55,5.18h-.19v7h7v-7h-2.67l-.53-4.76L293,54.08h15.23v2.74c0,.17,1.31,4.64,1.31,4.64H306.6v7h7v-7h-1.86V54.08h13.78l-.75,7.38H323.7v7h7v-7H329l-.39-7.38h11.84l.48,7.38h-.17v7h7v-7h-2.92l-2.08-7.38h14.76l.33,7.38v7h7v-7H362l-.84-7.38H373l2,9.81v4.58h7v-7h-3.86l1.31-7.38H392.1V68.47h7v-7h-4.36l-1-7.38H404.9l4.31,9.37v5h7v-7h-4.79l-.38-7.38Z" style="fill:#ebebeb"></path><rect x="226.38" y="92.33" width="184.54" height="0.75" style="fill:#dbdbdb"></rect><rect x="226.38" y="102.25" width="184.54" height="0.75" style="fill:#dbdbdb"></rect><rect x="226.38" y="112.17" width="184.54" height="0.75" style="fill:#dbdbdb"></rect><rect x="226.38" y="122.1" width="184.54" height="0.75" style="fill:#dbdbdb"></rect><rect x="226.38" y="132.02" width="184.54" height="0.75" style="fill:#dbdbdb"></rect><rect x="226.38" y="141.94" width="184.54" height="0.75" style="fill:#dbdbdb"></rect><rect x="226.38" y="151.86" width="184.54" height="0.75" style="fill:#dbdbdb"></rect><rect x="226.38" y="161.78" width="184.54" height="0.75" style="fill:#dbdbdb"></rect><rect x="226.38" y="171.7" width="184.54" height="0.75" style="fill:#dbdbdb"></rect><rect x="226.38" y="181.63" width="184.54" height="0.75" style="fill:#dbdbdb"></rect><rect x="226.38" y="191.55" width="184.54" height="0.75" style="fill:#dbdbdb"></rect><rect x="226.38" y="201.47" width="184.54" height="0.75" style="fill:#dbdbdb"></rect><rect x="226.38" y="211.39" width="184.54" height="0.75" style="fill:#dbdbdb"></rect><rect x="226.38" y="221.31" width="184.54" height="0.75" style="fill:#dbdbdb"></rect><rect x="226.38" y="231.23" width="184.54" height="0.75" style="fill:#dbdbdb"></rect><rect x="226.38" y="241.15" width="184.54" height="0.75" style="fill:#dbdbdb"></rect><rect x="226.38" y="251.08" width="184.54" height="0.75" style="fill:#dbdbdb"></rect><rect x="226.38" y="261" width="184.54" height="0.75" style="fill:#dbdbdb"></rect><rect x="226.38" y="270.92" width="184.54" height="0.75" style="fill:#dbdbdb"></rect><rect x="226.38" y="280.84" width="184.54" height="0.75" style="fill:#dbdbdb"></rect><rect x="226.38" y="290.76" width="184.54" height="0.75" style="fill:#dbdbdb"></rect><rect x="226.38" y="300.68" width="184.54" height="0.75" style="fill:#dbdbdb"></rect><rect x="226.38" y="310.6" width="184.54" height="0.75" style="fill:#dbdbdb"></rect><rect x="226.38" y="320.53" width="184.54" height="0.75" style="fill:#dbdbdb"></rect><polygon points="232.55 99.71 254.07 99.46 275.6 99.32 318.65 99.21 361.7 99.32 383.23 99.46 404.75 99.71 383.23 99.95 361.7 100.09 318.65 100.21 275.6 100.09 254.07 99.95 232.55 99.71" style="fill:#263238"></polygon><path d="M232.55,109.63c10.6-.21,21.2-.3,31.8-.38l31.8-.12,31.8.11,15.9.14,15.9.25-15.9.24L328,110l-31.8.12-31.8-.12C253.75,109.93,243.15,109.83,232.55,109.63Z" style="fill:#263238"></path><polygon points="232.55 119.55 254.07 119.31 275.6 119.17 318.65 119.05 361.7 119.17 383.23 119.31 404.75 119.55 383.23 119.79 361.7 119.93 318.65 120.05 275.6 119.93 254.07 119.79 232.55 119.55" style="fill:#263238"></polygon><path d="M232.55,129.47c6.94-.21,13.87-.3,20.81-.38l20.81-.12,20.8.12,10.41.14c3.46.08,6.93.13,10.4.24-3.47.11-6.94.16-10.4.25l-10.41.14-20.8.11-20.81-.12C246.42,129.77,239.49,129.68,232.55,129.47Z" style="fill:#263238"></path><polygon points="232.55 149.31 254.07 149.07 275.6 148.93 318.65 148.81 361.7 148.93 383.23 149.07 404.75 149.31 383.23 149.56 361.7 149.7 318.65 149.81 275.6 149.7 254.07 149.56 232.55 149.31" style="fill:#263238"></polygon><path d="M232.55,159.24c10.58-.21,21.17-.31,31.75-.39l31.75-.11,31.74.11,15.88.14,15.87.25-15.87.24-15.88.14-31.74.11-31.75-.11C253.72,159.54,243.13,159.44,232.55,159.24Z" style="fill:#263238"></path><path d="M232.55,169.16c11.77-.21,23.53-.31,35.3-.39l35.29-.11,35.29.11,17.65.14,17.65.25-17.65.24-17.65.14-35.29.12-35.29-.12C256.08,169.46,244.32,169.36,232.55,169.16Z" style="fill:#263238"></path><path d="M232.55,189c8.77-.21,17.54-.3,26.3-.38l26.31-.12,26.3.11,13.15.14,13.15.25-13.15.24-13.15.14-26.3.12-26.31-.12C250.09,189.3,241.32,189.21,232.55,189Z" style="fill:#263238"></path><polygon points="232.55 198.92 254.07 198.68 275.6 198.54 318.65 198.42 361.7 198.54 383.23 198.68 404.75 198.92 383.23 199.17 361.7 199.31 318.65 199.42 275.6 199.3 254.07 199.16 232.55 198.92" style="fill:#263238"></polygon><path d="M232.55,208.84c11.77-.2,23.53-.3,35.3-.38l35.29-.12,35.29.12,17.65.14,17.65.24-17.65.25-17.65.14-35.29.11-35.29-.11C256.08,209.15,244.32,209.05,232.55,208.84Z" style="fill:#263238"></path><polygon points="232.55 218.76 254.07 218.52 275.6 218.38 318.65 218.26 361.7 218.38 383.23 218.52 404.75 218.76 383.23 219.01 361.7 219.15 318.65 219.26 275.6 219.15 254.07 219.01 232.55 218.76" style="fill:#263238"></polygon><path d="M232.55,228.68c8.57-.2,17.15-.3,25.72-.38l25.72-.11,25.72.11,12.86.14,12.86.24-12.86.25-12.86.14-25.72.11-25.72-.11C249.7,229,241.12,228.89,232.55,228.68Z" style="fill:#263238"></path></g><g id="freepik--note-2--inject-22"><path d="M229.3,184.45H159.36a122.37,122.37,0,0,1-1.51-17.51V96.49h88v71.36C245.81,175,229.3,184.45,229.3,184.45Z" style="fill:#D0D0D0"></path><path d="M245.8,167.84c0,6.93-15.51,16-16.47,16.56,2.57-1.74,2.13-15.51,2.13-15.51S245.54,167.06,245.8,167.84Z" style="opacity:0.2"></path><path d="M170.8,117.27c10.34-.84,20.69-1,31-1.08s20.69.23,31,1.08c-10.34.86-20.69,1-31,1.09S181.14,118.12,170.8,117.27Z" style="fill:#fff"></path><path d="M170.8,128.87c8.14-.85,16.28-1,24.41-1.09s16.28.24,24.42,1.09A243.29,243.29,0,0,1,195.21,130C187.08,129.92,178.94,129.72,170.8,128.87Z" style="fill:#fff"></path><path d="M170.8,140.47c8.14-.85,16.28-1.05,24.41-1.09a243.29,243.29,0,0,1,24.42,1.09c-8.14.85-16.28,1.05-24.42,1.09S178.94,141.32,170.8,140.47Z" style="fill:#fff"></path></g><g id="freepik--note-3--inject-22"><path d="M395.8,380.57H312.38s-4.13-8.52-4.13-16.6V297.15h83.42v67.68C391.67,371.6,395.8,380.57,395.8,380.57Z" style="fill:#D0D0D0"></path><path d="M395.8,380.57H312.38s-4.13-8.52-4.13-16.6V297.15h83.42v67.68C391.67,371.6,395.8,380.57,395.8,380.57Z" style="fill:#fff;opacity:0.8"></path><rect x="308.25" y="302.84" width="83.42" height="0.25" style="fill:#dbdbdb"></rect><rect x="308.25" y="308.83" width="83.42" height="0.25" style="fill:#dbdbdb"></rect><rect x="308.25" y="314.83" width="83.42" height="0.25" style="fill:#dbdbdb"></rect><rect x="308.25" y="320.82" width="83.42" height="0.25" style="fill:#dbdbdb"></rect><rect x="308.25" y="326.82" width="83.42" height="0.25" style="fill:#dbdbdb"></rect><rect x="308.25" y="332.81" width="83.42" height="0.25" style="fill:#dbdbdb"></rect><rect x="308.25" y="338.8" width="83.42" height="0.25" style="fill:#dbdbdb"></rect><rect x="308.25" y="344.8" width="83.42" height="0.25" style="fill:#dbdbdb"></rect><rect x="308.25" y="350.79" width="83.42" height="0.25" style="fill:#dbdbdb"></rect><rect x="308.25" y="356.79" width="83.42" height="0.25" style="fill:#dbdbdb"></rect><rect x="308.25" y="362.78" width="83.42" height="0.25" style="fill:#dbdbdb"></rect><path d="M392.09,369H308.72a1.87,1.87,0,0,1,0-.25h83.37C392.06,368.86,392.08,369,392.09,369Z" style="fill:#dbdbdb"></path><path d="M393.67,375H310.23a1.83,1.83,0,0,1-.08-.25h83.44A1.83,1.83,0,0,0,393.67,375Z" style="fill:#dbdbdb"></path><path d="M317.78,380.57h-.26c-.66-1.8-1.32-3.7-1.9-5.55,0-.09-.05-.17-.07-.25a48.46,48.46,0,0,1-1.46-5.74,2.21,2.21,0,0,1,0-.25,15.42,15.42,0,0,1-.26-2.61v-69H314v69a15.42,15.42,0,0,0,.26,2.61c0,.08,0,.16,0,.25a50.67,50.67,0,0,0,1.47,5.74c0,.08.05.17.08.25C316.46,376.88,317.12,378.78,317.78,380.57Z" style="fill:#dbdbdb"></path><path d="M323.78,380.57h-.26c-.66-1.8-1.32-3.7-1.9-5.55,0-.09-.05-.17-.07-.25a48.46,48.46,0,0,1-1.46-5.74,2.21,2.21,0,0,1,0-.25,15.42,15.42,0,0,1-.26-2.61v-69H320v69a15.42,15.42,0,0,0,.26,2.61c0,.08,0,.16,0,.25a50.67,50.67,0,0,0,1.47,5.74c0,.08.05.17.08.25C322.46,376.88,323.12,378.78,323.78,380.57Z" style="fill:#dbdbdb"></path><path d="M329.77,380.57h-.26c-.66-1.8-1.32-3.7-1.9-5.55,0-.09-.05-.17-.07-.25a48.46,48.46,0,0,1-1.46-5.74,2.21,2.21,0,0,1-.05-.25,15.42,15.42,0,0,1-.26-2.61v-69H326v69a15.42,15.42,0,0,0,.26,2.61c0,.08,0,.16,0,.25a50.67,50.67,0,0,0,1.47,5.74c0,.08,0,.17.08.25C328.45,376.88,329.11,378.78,329.77,380.57Z" style="fill:#dbdbdb"></path><path d="M335.77,380.57h-.26c-.66-1.8-1.32-3.7-1.9-5.55,0-.09-.05-.17-.08-.25a50.49,50.49,0,0,1-1.46-5.74c0-.08,0-.17,0-.25a15.42,15.42,0,0,1-.26-2.61v-69H332v69a15.42,15.42,0,0,0,.26,2.61c0,.08,0,.16,0,.25a50.67,50.67,0,0,0,1.47,5.74c0,.08,0,.17.08.25C334.45,376.88,335.11,378.78,335.77,380.57Z" style="fill:#dbdbdb"></path><path d="M341.76,380.57h-.26c-.66-1.8-1.32-3.7-1.9-5.55,0-.09-.05-.17-.07-.25a48.46,48.46,0,0,1-1.46-5.74,2.21,2.21,0,0,1-.05-.25,15.42,15.42,0,0,1-.26-2.61v-69H338v69a15.42,15.42,0,0,0,.26,2.61c0,.08,0,.16,0,.25a50.67,50.67,0,0,0,1.47,5.74c0,.08.05.17.08.25C340.44,376.88,341.1,378.78,341.76,380.57Z" style="fill:#dbdbdb"></path><path d="M347.76,380.57h-.26c-.66-1.8-1.32-3.7-1.9-5.55,0-.09-.05-.17-.07-.25a48.46,48.46,0,0,1-1.46-5.74,2.21,2.21,0,0,1-.05-.25,15.42,15.42,0,0,1-.26-2.61v-69H344v69a15.42,15.42,0,0,0,.26,2.61c0,.08,0,.16,0,.25a50.67,50.67,0,0,0,1.47,5.74c0,.08.05.17.08.25C346.44,376.88,347.1,378.78,347.76,380.57Z" style="fill:#dbdbdb"></path><path d="M353.75,380.57h-.26c-.66-1.8-1.32-3.7-1.9-5.55,0-.09,0-.17-.08-.25a50.49,50.49,0,0,1-1.46-5.74c0-.08,0-.17,0-.25a15.42,15.42,0,0,1-.26-2.61v-69H350v69a15.42,15.42,0,0,0,.26,2.61c0,.08,0,.16,0,.25a50.67,50.67,0,0,0,1.47,5.74c0,.08.05.17.08.25C352.43,376.88,353.09,378.78,353.75,380.57Z" style="fill:#dbdbdb"></path><path d="M359.75,380.57h-.26c-.66-1.8-1.32-3.7-1.9-5.55,0-.09,0-.17-.08-.25a50.49,50.49,0,0,1-1.46-5.74c0-.08,0-.17,0-.25a15.42,15.42,0,0,1-.26-2.61v-69H356v69a15.42,15.42,0,0,0,.26,2.61c0,.08,0,.16,0,.25a50.67,50.67,0,0,0,1.47,5.74c0,.08.05.17.08.25C358.43,376.88,359.09,378.78,359.75,380.57Z" style="fill:#dbdbdb"></path><path d="M365.74,380.57h-.26c-.66-1.8-1.32-3.7-1.9-5.55,0-.09-.05-.17-.07-.25a48.46,48.46,0,0,1-1.46-5.74,2.21,2.21,0,0,1-.05-.25,15.42,15.42,0,0,1-.26-2.61v-69H362v69a15.42,15.42,0,0,0,.26,2.61c0,.08,0,.16,0,.25a50.67,50.67,0,0,0,1.47,5.74c0,.08.05.17.08.25C364.42,376.88,365.08,378.78,365.74,380.57Z" style="fill:#dbdbdb"></path><path d="M371.74,380.57h-.26c-.66-1.8-1.32-3.7-1.9-5.55,0-.09-.05-.17-.07-.25a48.46,48.46,0,0,1-1.46-5.74,2.21,2.21,0,0,1-.05-.25,15.42,15.42,0,0,1-.26-2.61v-69H368v69a15.42,15.42,0,0,0,.26,2.61c0,.08,0,.16,0,.25a50.67,50.67,0,0,0,1.47,5.74c0,.08.05.17.08.25C370.42,376.88,371.08,378.78,371.74,380.57Z" style="fill:#dbdbdb"></path><path d="M377.73,380.57h-.26c-.66-1.8-1.32-3.7-1.9-5.55,0-.09-.05-.17-.08-.25A50.49,50.49,0,0,1,374,369c0-.08,0-.17,0-.25a15.42,15.42,0,0,1-.26-2.61v-69H374v69a15.42,15.42,0,0,0,.26,2.61c0,.08,0,.16,0,.25a50.67,50.67,0,0,0,1.47,5.74c0,.08.05.17.08.25C376.41,376.88,377.07,378.78,377.73,380.57Z" style="fill:#dbdbdb"></path><path d="M383.73,380.57h-.26c-.66-1.8-1.32-3.7-1.9-5.55,0-.09-.05-.17-.08-.25A50.49,50.49,0,0,1,380,369c0-.08,0-.17,0-.25a15.42,15.42,0,0,1-.26-2.61v-69H380v69a15.42,15.42,0,0,0,.26,2.61c0,.08,0,.16,0,.25a50.67,50.67,0,0,0,1.47,5.74c0,.08.05.17.08.25C382.41,376.88,383.07,378.78,383.73,380.57Z" style="fill:#dbdbdb"></path><path d="M389.72,380.57h-.26c-.66-1.8-1.32-3.7-1.9-5.55,0-.09-.05-.17-.07-.25A48.46,48.46,0,0,1,386,369a2.21,2.21,0,0,1,0-.25,15.42,15.42,0,0,1-.26-2.61v-69H386v69a15.42,15.42,0,0,0,.26,2.61c0,.08,0,.16,0,.25a50.67,50.67,0,0,0,1.47,5.74c0,.08.05.17.08.25C388.4,376.88,389.06,378.78,389.72,380.57Z" style="fill:#dbdbdb"></path><path d="M320.79,313.58c4.93-.21,9.87-.3,14.8-.38s9.86-.08,14.8-.12,9.86,0,14.79.12l7.4.14c2.47.08,4.93.13,7.4.24-2.47.11-4.93.16-7.4.25l-7.4.14c-4.93.07-9.86.07-14.79.11s-9.87,0-14.8-.12S325.72,313.79,320.79,313.58Z" style="fill:#263238"></path><path d="M320.79,319.46c4.93-.2,9.87-.3,14.8-.38s9.86-.08,14.8-.12,9.86,0,14.79.12l7.4.14c2.47.08,4.93.13,7.4.24-2.47.12-4.93.16-7.4.25l-7.4.14c-4.93.08-9.86.07-14.79.11s-9.87,0-14.8-.11S325.72,319.67,320.79,319.46Z" style="fill:#263238"></path><path d="M320.79,325.34c3.53-.2,7-.3,10.58-.38s7.05-.1,10.58-.12,7.05,0,10.58.12l5.28.14c1.77.08,3.53.13,5.29.24-1.76.12-3.52.17-5.29.25l-5.28.14c-3.53.09-7.06.1-10.58.11s-7.06,0-10.58-.11S324.32,325.55,320.79,325.34Z" style="fill:#263238"></path><path d="M320.79,337.11c2.14-.21,4.28-.3,6.42-.38s4.28-.11,6.42-.12,4.28,0,6.43.11l3.21.14c1.07.09,2.14.13,3.21.25-1.07.11-2.14.16-3.21.24l-3.21.14c-2.15.09-4.29.11-6.43.12s-4.28,0-6.42-.12S322.93,337.31,320.79,337.11Z" style="fill:#263238"></path><path d="M320.79,343c4.93-.21,9.87-.3,14.8-.38s9.86-.08,14.8-.12,9.86,0,14.79.11l7.4.14c2.47.09,4.93.14,7.4.25-2.47.11-4.93.16-7.4.24l-7.4.14c-4.93.08-9.86.08-14.79.12s-9.87,0-14.8-.12S325.72,343.2,320.79,343Z" style="fill:#263238"></path><path d="M320.79,348.87c4.19-.2,8.37-.3,12.56-.38s8.37-.08,12.56-.12,8.37,0,12.56.12l6.28.14c2.09.08,4.19.13,6.28.24-2.09.11-4.19.16-6.28.25l-6.28.14c-4.19.08-8.37.07-12.56.11s-8.37,0-12.56-.12S325,349.08,320.79,348.87Z" style="fill:#263238"></path><path d="M320.79,354.75c3.46-.2,6.91-.3,10.37-.38s6.91-.1,10.37-.12,6.91,0,10.37.12l5.19.14c1.73.08,3.45.13,5.18.24-1.73.12-3.45.17-5.18.25l-5.19.14c-3.46.09-6.91.1-10.37.11s-6.91,0-10.37-.11S324.25,355,320.79,354.75Z" style="fill:#263238"></path><g style="opacity:0.5"><polygon points="331.45 288.66 327.81 291.03 331.92 289.45 333.47 292.04 331.81 293.49 333.93 292.8 334.52 293.8 332.26 295.44 334.84 294.33 335.29 295.08 304.8 313.3 303.46 311.06 305.85 309.48 303.11 310.46 302.54 309.51 304.33 308.23 302.24 309 301.96 308.54 304.81 306.23 301.24 307.34 300.27 305.71 330.76 287.5 331.45 288.66" style="fill:#fff"></polygon><polygon points="400.58 311.5 397.21 308.87 399.98 312.2 398.03 314.5 396.15 313.42 397.46 315.17 396.7 316.06 394.46 314.49 396.3 316.54 395.74 317.2 369.11 294.59 370.8 292.6 373.02 294.32 371.25 292.08 371.97 291.22 373.73 292.49 372.35 290.78 372.7 290.37 375.77 292.3 373.6 289.3 374.82 287.86 401.45 310.47 400.58 311.5" style="fill:#fff"></polygon></g></g><g id="freepik--Bookmarks--inject-22"><polygon points="446.52 261.55 390.44 261.55 377.89 252.94 390.44 244.34 446.52 244.34 446.52 261.55" style="fill:#D0D0D0"></polygon><polygon points="458.55 239.88 402.46 239.88 389.92 231.27 402.46 222.66 458.55 222.66 458.55 239.88" style="fill:#455a64"></polygon></g><g id="freepik--Plant--inject-22"><path d="M453.39,312.56c-9.78,13.25-20,28.62-22.46,45.23a.22.22,0,0,0,.43.09,98.36,98.36,0,0,1,4.33-13.3c6.43-1.77,12.74-3.23,16.12-9.61,3.44-6.56,3-15.12,2.35-22.26C454.11,312.32,453.59,312.31,453.39,312.56Z" style="fill:#D0D0D0"></path><path d="M435.78,344.45c4.4-9.86,10-19.76,17.21-27.87.05-.05.12,0,.08.08-4.7,5.78-8.26,12.07-11.75,18.46,3.24-3.28,6.79-6.23,9.86-9.72.06-.06.15,0,.1.1-3,3.66-6.38,7.63-10.35,10.34q-1.59,2.94-3.22,5.9c.26-.15.54-.28.81-.42.05,0,.09.05.05.07-.31.16-.61.32-.92.45-.51.93-1,1.86-1.55,2.79C436,344.84,435.69,344.66,435.78,344.45Z" style="fill:#263238"></path><path d="M439.05,341a58,58,0,0,0,7.51-5c.06-.05.16,0,.09.09a39.49,39.49,0,0,1-7.49,5.11C439,341.26,438.93,341.08,439.05,341Z" style="fill:#263238"></path><path d="M429.8,355.32a.18.18,0,0,0,.36,0c0-5.47,0-11,.08-16.46,1.4-2.83,4.41-4.4,6.5-6.66a29.68,29.68,0,0,0,3.91-5.44,39.14,39.14,0,0,0,4.52-15.09c.58-5.85-1.64-25.16-4.11-24.49-1.28.35-5.42,9.91-6.51,13.07a91,91,0,0,0-3.9,16C428.65,329.15,428.82,342.37,429.8,355.32Z" style="fill:#D0D0D0"></path><path d="M429.76,331.72l0,0c.3-6.92,1.86-13.91,3.32-20.62,1.57-7.24,3.41-14.05,7.14-20.5.06-.12.24,0,.18.11a76.48,76.48,0,0,0-5.73,15.73c.25-.39.55-.76.81-1.13.1-.14.34,0,.24.14a10,10,0,0,1-1.16,1.65l-.05,0c-1.28,5.17-2.2,10.46-3,15.73l.18-.2c0-.05.11,0,.08.06l-.32.52c-.39,2.68-.76,5.35-1.13,8,4.77-4.07,8.84-8.88,11.14-14.8a0,0,0,0,1,0,0c-2.25,6.14-5.8,11.59-11.26,15.32q-.13,1.06-.3,2.13c0,.15-.25.11-.25,0,0-.63,0-1.26.06-1.9A.15.15,0,0,1,429.76,331.72Z" style="fill:#263238"></path><path d="M432,321.69A109.7,109.7,0,0,0,441.72,305c0-.07.14,0,.11,0a54.14,54.14,0,0,1-9.64,16.81C432.1,321.93,431.93,321.8,432,321.69Z" style="fill:#263238"></path><path d="M436.85,303.62c1.5-2.67,3.1-5.27,4.52-8,0-.07.14,0,.11.07a41.71,41.71,0,0,1-4.4,8.06A.13.13,0,0,1,436.85,303.62Z" style="fill:#263238"></path><path d="M436.26,304.79a0,0,0,1,1,0,0A0,0,0,1,1,436.26,304.79Z" style="fill:#263238"></path><path d="M426.09,339.5a55.69,55.69,0,0,1-1.27,10.78c.05.39.11.78.17,1.18a51.09,51.09,0,0,0,1.92-12,.35.35,0,0,0,0-.37v0a79.33,79.33,0,0,0-1.21-16.27c-1.69-10.06-5.39-19.71-12.41-27.24a.49.49,0,0,0-.77.16c-2.83,7.19-1.84,15.78.57,23a41.93,41.93,0,0,0,5.56,10.91C421.07,333,424.14,335.81,426.09,339.5Z" style="fill:#D0D0D0"></path><path d="M414.14,298.91c6.65,10.79,11.27,23.58,11.84,36.32,0,.22-.37.28-.4,0-.16-1.14-.34-2.28-.52-3.41h0a43.71,43.71,0,0,1-7.54-8.7c0-.06.05-.13.09-.08a90.83,90.83,0,0,0,7.33,8c-.48-2.81-1-5.59-1.71-8.32-.18-.2-.35-.41-.52-.61s.07-.34.19-.2l.16.17a96.61,96.61,0,0,0-3.47-11c-1.69-2-3.58-3.76-4.82-6.19,0-.06.05-.1.09-.05,1,1.39,1.95,2.79,3.07,4.08.45.51.94,1,1.41,1.49a85.82,85.82,0,0,0-5.44-11.34A.15.15,0,0,1,414.14,298.91Z" style="fill:#263238"></path><path d="M415.49,312.22c2.15,2.89,4.59,5.65,6.59,8.63.06.09-.07.18-.14.11a44.26,44.26,0,0,1-6.6-8.66C415.28,312.21,415.42,312.13,415.49,312.22Z" style="fill:#263238"></path><path d="M422.38,321.52l.09.1c.07.06,0,.16-.1.09l-.09-.09C422.22,321.56,422.32,321.46,422.38,321.52Z" style="fill:#263238"></path><path d="M403.73,319.65a33.24,33.24,0,0,0,7,16.45,17.58,17.58,0,0,0,5.69,4.44c2.46,1.22,5,2.62,7.59,3.62a50.24,50.24,0,0,1,2.69,9.54c.08-.27.16-.56.24-.84-1.63-14.05-10.72-26.06-22.35-33.77A.57.57,0,0,0,403.73,319.65Z" style="fill:#D0D0D0"></path><path d="M407.75,323.8c-.08-.08,0-.22.12-.16a47.71,47.71,0,0,1,14.82,18.26c.08.2-.18.36-.29.17-.54-.94-1.1-1.87-1.66-2.77h0c-2.66-.5-5.17-2.37-7.14-4.14-.06-.05,0-.13.08-.08a16,16,0,0,0,3.36,2.36c1.08.55,2.24.9,3.37,1.34-1-1.56-2-3.06-3.08-4.51a31,31,0,0,1-8-4.49c-.07,0,0-.18.08-.13a78.9,78.9,0,0,0,7.41,4,67,67,0,0,0-5.23-6.11c-.91-.47-1.82-.95-2.69-1.46a.08.08,0,0,1,.05-.14,9.47,9.47,0,0,1,2.07,1C410,325.87,408.91,324.82,407.75,323.8Z" style="fill:#263238"></path><path d="M408,328.65a2.75,2.75,0,0,1,.44.32c.05,0,0,.09-.05.07a3.1,3.1,0,0,1-.47-.26A.08.08,0,0,1,408,328.65Z" style="fill:#263238"></path><polygon points="445.1 384.13 413.24 384.13 415.81 355.11 416.38 348.71 441.96 348.71 442.53 355.11 445.1 384.13" style="fill:#455a64"></polygon><polygon points="442.53 355.11 415.81 355.11 416.38 348.71 441.96 348.71 442.53 355.11" style="fill:#263238"></polygon><rect x="414.85" y="344.24" width="28.64" height="6.33" style="fill:#455a64"></rect></g></svg>